<svg width="24.000000" height="24.000000" viewBox="0 0 24 24" fill="none" xmlns="http://www.w3.org/2000/svg" xmlns:xlink="http://www.w3.org/1999/xlink">
	<desc>
			Created with Pixso.
	</desc>
	<defs>
		<clipPath id="clip29_6641">
			<rect id="Linear / Security / Lock Password" rx="0.000000" width="23.000000" height="23.000000" transform="translate(0.500000 0.500000)" fill="white" fill-opacity="0"/>
		</clipPath>
	</defs>
	<g clip-path="url(#clip29_6641)">
		<path id="Vector" d="M2 16C2 13.17 2 11.75 2.87 10.87C3.75 10 5.17 10 8 10L16 10C18.82 10 20.24 10 21.12 10.87C22 11.75 22 13.17 22 16C22 18.82 22 20.24 21.12 21.12C20.24 22 18.82 22 16 22L8 22C5.17 22 3.75 22 2.87 21.12C2 20.24 2 18.82 2 16Z" fill="#FFFFFF" fill-opacity="0" fill-rule="nonzero"/>
		<path id="Vector" d="M16 10C18.82 10 20.24 10 21.12 10.87C22 11.75 22 13.17 22 16C22 18.82 22 20.24 21.12 21.12C20.24 22 18.82 22 16 22L8 22C5.17 22 3.75 22 2.87 21.12C2 20.24 2 18.82 2 16C2 13.17 2 11.75 2.87 10.87C3.75 10 5.17 10 8 10L16 10Z" stroke="#667085" stroke-opacity="1.000000" stroke-width="1.500000"/>
		<path id="Vector" d="M6 10L6 8C6 4.68 8.68 2 12 2C15.31 2 18 4.68 18 8L18 10" stroke="#667085" stroke-opacity="1.000000" stroke-width="1.500000" stroke-linecap="round"/>
		<path id="Vector" d="M8 16L8 16M11.99 16L12 16M15.99 16L16 16" stroke="#667085" stroke-opacity="1.000000" stroke-width="2.000000" stroke-linejoin="round" stroke-linecap="round"/>
	</g>
</svg>
